<?xml version="1.0" encoding="utf-8" standalone="no"?>
<!DOCTYPE svg PUBLIC "-//W3C//DTD SVG 1.1//EN"
  "http://www.w3.org/Graphics/SVG/1.1/DTD/svg11.dtd">
<svg xmlns:xlink="http://www.w3.org/1999/xlink" width="718.990937pt" height="446.986562pt" viewBox="0 0 718.990937 446.986562" xmlns="http://www.w3.org/2000/svg" version="1.1">
 <metadata>
  <rdf:RDF xmlns:dc="http://purl.org/dc/elements/1.1/" xmlns:cc="http://creativecommons.org/ns#" xmlns:rdf="http://www.w3.org/1999/02/22-rdf-syntax-ns#">
   <cc:Work>
    <dc:type rdf:resource="http://purl.org/dc/dcmitype/StillImage"/>
    <dc:date>2026-01-14T04:06:15.466423</dc:date>
    <dc:format>image/svg+xml</dc:format>
    <dc:creator>
     <cc:Agent>
      <dc:title>Matplotlib v3.10.8, https://matplotlib.org/</dc:title>
     </cc:Agent>
    </dc:creator>
   </cc:Work>
  </rdf:RDF>
 </metadata>
 <defs>
  <style type="text/css">*{stroke-linejoin: round; stroke-linecap: butt}</style>
 </defs>
 <g id="figure_1">
  <g id="patch_1">
   <path d="M 0 446.986562 
L 718.990937 446.986562 
L 718.990937 0 
L 0 0 
z
" style="fill: #ffffff"/>
  </g>
  <g id="axes_1">
   <g id="patch_2">
    <path d="M 42.190938 410.398125 
L 711.790938 410.398125 
L 711.790938 22.318125 
L 42.190938 22.318125 
z
" style="fill: #ffffff"/>
   </g>
   <g id="patch_3">
    <path d="M 72.627301 410.398125 
L 82.772756 410.398125 
L 82.772756 287.361286 
L 72.627301 287.361286 
z
" clip-path="url(#pb9c756a8cb)" style="fill: #2c7fb8; opacity: 0.6"/>
   </g>
   <g id="patch_4">
    <path d="M 82.772756 410.398125 
L 92.91821 410.398125 
L 92.91821 288.480678 
L 82.772756 288.480678 
z
" clip-path="url(#pb9c756a8cb)" style="fill: #2c7fb8; opacity: 0.6"/>
   </g>
   <g id="patch_5">
    <path d="M 92.91821 410.398125 
L 103.063665 410.398125 
L 103.063665 340.851377 
L 92.91821 340.851377 
z
" clip-path="url(#pb9c756a8cb)" style="fill: #2c7fb8; opacity: 0.6"/>
   </g>
   <g id="patch_6">
    <path d="M 103.063665 410.398125 
L 113.209119 410.398125 
L 113.209119 380.318976 
L 103.063665 380.318976 
z
" clip-path="url(#pb9c756a8cb)" style="fill: #2c7fb8; opacity: 0.6"/>
   </g>
   <g id="patch_7">
    <path d="M 113.209119 410.398125 
L 123.354574 410.398125 
L 123.354574 290.45466 
L 113.209119 290.45466 
z
" clip-path="url(#pb9c756a8cb)" style="fill: #2c7fb8; opacity: 0.6"/>
   </g>
   <g id="patch_8">
    <path d="M 123.354574 410.398125 
L 133.500028 410.398125 
L 133.500028 387.998247 
L 123.354574 387.998247 
z
" clip-path="url(#pb9c756a8cb)" style="fill: #2c7fb8; opacity: 0.6"/>
   </g>
   <g id="patch_9">
    <path d="M 133.500028 410.398125 
L 143.645483 410.398125 
L 143.645483 403.585481 
L 133.500028 403.585481 
z
" clip-path="url(#pb9c756a8cb)" style="fill: #2c7fb8; opacity: 0.6"/>
   </g>
   <g id="patch_10">
    <path d="M 143.645483 410.398125 
L 153.790938 410.398125 
L 153.790938 395.858064 
L 143.645483 395.858064 
z
" clip-path="url(#pb9c756a8cb)" style="fill: #2c7fb8; opacity: 0.6"/>
   </g>
   <g id="patch_11">
    <path d="M 153.790937 410.398125 
L 163.936392 410.398125 
L 163.936392 373.999827 
L 153.790937 373.999827 
z
" clip-path="url(#pb9c756a8cb)" style="fill: #2c7fb8; opacity: 0.6"/>
   </g>
   <g id="patch_12">
    <path d="M 163.936392 410.398125 
L 174.081847 410.398125 
L 174.081847 271.244447 
L 163.936392 271.244447 
z
" clip-path="url(#pb9c756a8cb)" style="fill: #2c7fb8; opacity: 0.6"/>
   </g>
   <g id="patch_13">
    <path d="M 174.081847 410.398125 
L 184.227301 410.398125 
L 184.227301 194.162867 
L 174.081847 194.162867 
z
" clip-path="url(#pb9c756a8cb)" style="fill: #2c7fb8; opacity: 0.6"/>
   </g>
   <g id="patch_14">
    <path d="M 184.227301 410.398125 
L 194.372756 410.398125 
L 194.372756 218.801529 
L 184.227301 218.801529 
z
" clip-path="url(#pb9c756a8cb)" style="fill: #2c7fb8; opacity: 0.6"/>
   </g>
   <g id="patch_15">
    <path d="M 194.372756 410.398125 
L 204.51821 410.398125 
L 204.51821 277.178429 
L 194.372756 277.178429 
z
" clip-path="url(#pb9c756a8cb)" style="fill: #2c7fb8; opacity: 0.6"/>
   </g>
   <g id="patch_16">
    <path d="M 204.51821 410.398125 
L 214.663665 410.398125 
L 214.663665 294.968338 
L 204.51821 294.968338 
z
" clip-path="url(#pb9c756a8cb)" style="fill: #2c7fb8; opacity: 0.6"/>
   </g>
   <g id="patch_17">
    <path d="M 214.663665 410.398125 
L 224.809119 410.398125 
L 224.809119 332.534174 
L 214.663665 332.534174 
z
" clip-path="url(#pb9c756a8cb)" style="fill: #2c7fb8; opacity: 0.6"/>
   </g>
   <g id="patch_18">
    <path d="M 224.809119 410.398125 
L 234.954574 410.398125 
L 234.954574 316.369189 
L 224.809119 316.369189 
z
" clip-path="url(#pb9c756a8cb)" style="fill: #2c7fb8; opacity: 0.6"/>
   </g>
   <g id="patch_19">
    <path d="M 234.954574 410.398125 
L 245.100028 410.398125 
L 245.100028 276.480313 
L 234.954574 276.480313 
z
" clip-path="url(#pb9c756a8cb)" style="fill: #2c7fb8; opacity: 0.6"/>
   </g>
   <g id="patch_20">
    <path d="M 245.100028 410.398125 
L 255.245483 410.398125 
L 255.245483 328.562137 
L 245.100028 328.562137 
z
" clip-path="url(#pb9c756a8cb)" style="fill: #2c7fb8; opacity: 0.6"/>
   </g>
   <g id="patch_21">
    <path d="M 255.245483 410.398125 
L 265.390938 410.398125 
L 265.390938 239.949614 
L 255.245483 239.949614 
z
" clip-path="url(#pb9c756a8cb)" style="fill: #2c7fb8; opacity: 0.6"/>
   </g>
   <g id="patch_22">
    <path d="M 265.390938 410.398125 
L 275.536392 410.398125 
L 275.536392 42.575511 
L 265.390938 42.575511 
z
" clip-path="url(#pb9c756a8cb)" style="fill: #2c7fb8; opacity: 0.6"/>
   </g>
   <g id="patch_23">
    <path d="M 275.536392 410.398125 
L 285.681847 410.398125 
L 285.681847 300.360678 
L 275.536392 300.360678 
z
" clip-path="url(#pb9c756a8cb)" style="fill: #2c7fb8; opacity: 0.6"/>
   </g>
   <g id="patch_24">
    <path d="M 285.681847 410.398125 
L 295.827301 410.398125 
L 295.827301 134.413809 
L 285.681847 134.413809 
z
" clip-path="url(#pb9c756a8cb)" style="fill: #2c7fb8; opacity: 0.6"/>
   </g>
   <g id="patch_25">
    <path d="M 295.827301 410.398125 
L 305.972756 410.398125 
L 305.972756 157.271073 
L 295.827301 157.271073 
z
" clip-path="url(#pb9c756a8cb)" style="fill: #2c7fb8; opacity: 0.6"/>
   </g>
   <g id="patch_26">
    <path d="M 305.972756 410.398125 
L 316.11821 410.398125 
L 316.11821 296.94232 
L 305.972756 296.94232 
z
" clip-path="url(#pb9c756a8cb)" style="fill: #2c7fb8; opacity: 0.6"/>
   </g>
   <g id="patch_27">
    <path d="M 316.11821 410.398125 
L 326.263665 410.398125 
L 326.263665 231.788885 
L 316.11821 231.788885 
z
" clip-path="url(#pb9c756a8cb)" style="fill: #2c7fb8; opacity: 0.6"/>
   </g>
   <g id="patch_28">
    <path d="M 326.263665 410.398125 
L 336.409119 410.398125 
L 336.409119 282.859645 
L 326.263665 282.859645 
z
" clip-path="url(#pb9c756a8cb)" style="fill: #2c7fb8; opacity: 0.6"/>
   </g>
   <g id="patch_29">
    <path d="M 336.409119 410.398125 
L 346.554574 410.398125 
L 346.554574 260.219037 
L 336.409119 260.219037 
z
" clip-path="url(#pb9c756a8cb)" style="fill: #2c7fb8; opacity: 0.6"/>
   </g>
   <g id="patch_30">
    <path d="M 346.554574 410.398125 
L 356.700028 410.398125 
L 356.700028 350.179645 
L 346.554574 350.179645 
z
" clip-path="url(#pb9c756a8cb)" style="fill: #2c7fb8; opacity: 0.6"/>
   </g>
   <g id="patch_31">
    <path d="M 356.700028 410.398125 
L 366.845483 410.398125 
L 366.845483 342.355937 
L 356.700028 342.355937 
z
" clip-path="url(#pb9c756a8cb)" style="fill: #2c7fb8; opacity: 0.6"/>
   </g>
   <g id="patch_32">
    <path d="M 366.845483 410.398125 
L 376.990937 410.398125 
L 376.990937 285.519706 
L 366.845483 285.519706 
z
" clip-path="url(#pb9c756a8cb)" style="fill: #2c7fb8; opacity: 0.6"/>
   </g>
   <g id="patch_33">
    <path d="M 376.990938 410.398125 
L 387.136392 410.398125 
L 387.136392 375.08311 
L 376.990938 375.08311 
z
" clip-path="url(#pb9c756a8cb)" style="fill: #2c7fb8; opacity: 0.6"/>
   </g>
   <g id="patch_34">
    <path d="M 387.136392 410.398125 
L 397.281847 410.398125 
L 397.281847 172.834234 
L 387.136392 172.834234 
z
" clip-path="url(#pb9c756a8cb)" style="fill: #2c7fb8; opacity: 0.6"/>
   </g>
   <g id="patch_35">
    <path d="M 397.281847 410.398125 
L 407.427301 410.398125 
L 407.427301 309.351924 
L 397.281847 309.351924 
z
" clip-path="url(#pb9c756a8cb)" style="fill: #2c7fb8; opacity: 0.6"/>
   </g>
   <g id="patch_36">
    <path d="M 407.427301 410.398125 
L 417.572756 410.398125 
L 417.572756 378.778307 
L 407.427301 378.778307 
z
" clip-path="url(#pb9c756a8cb)" style="fill: #2c7fb8; opacity: 0.6"/>
   </g>
   <g id="patch_37">
    <path d="M 417.572756 410.398125 
L 427.71821 410.398125 
L 427.71821 333.545237 
L 417.572756 333.545237 
z
" clip-path="url(#pb9c756a8cb)" style="fill: #2c7fb8; opacity: 0.6"/>
   </g>
   <g id="patch_38">
    <path d="M 427.71821 410.398125 
L 437.863665 410.398125 
L 437.863665 341.958733 
L 427.71821 341.958733 
z
" clip-path="url(#pb9c756a8cb)" style="fill: #2c7fb8; opacity: 0.6"/>
   </g>
   <g id="patch_39">
    <path d="M 437.863665 410.398125 
L 448.009119 410.398125 
L 448.009119 372.35083 
L 437.863665 372.35083 
z
" clip-path="url(#pb9c756a8cb)" style="fill: #2c7fb8; opacity: 0.6"/>
   </g>
   <g id="patch_40">
    <path d="M 448.009119 410.398125 
L 458.154574 410.398125 
L 458.154574 347.447365 
L 448.009119 347.447365 
z
" clip-path="url(#pb9c756a8cb)" style="fill: #2c7fb8; opacity: 0.6"/>
   </g>
   <g id="patch_41">
    <path d="M 458.154574 410.398125 
L 468.300028 410.398125 
L 468.300028 352.213809 
L 458.154574 352.213809 
z
" clip-path="url(#pb9c756a8cb)" style="fill: #2c7fb8; opacity: 0.6"/>
   </g>
   <g id="patch_42">
    <path d="M 468.300028 410.398125 
L 478.445483 410.398125 
L 478.445483 342.608703 
L 468.300028 342.608703 
z
" clip-path="url(#pb9c756a8cb)" style="fill: #2c7fb8; opacity: 0.6"/>
   </g>
   <g id="patch_43">
    <path d="M 478.445483 410.398125 
L 488.590938 410.398125 
L 488.590938 391.115693 
L 478.445483 391.115693 
z
" clip-path="url(#pb9c756a8cb)" style="fill: #2c7fb8; opacity: 0.6"/>
   </g>
   <g id="patch_44">
    <path d="M 488.590938 410.398125 
L 498.736392 410.398125 
L 498.736392 402.754964 
L 488.590938 402.754964 
z
" clip-path="url(#pb9c756a8cb)" style="fill: #2c7fb8; opacity: 0.6"/>
   </g>
   <g id="patch_45">
    <path d="M 498.736392 410.398125 
L 508.881847 410.398125 
L 508.881847 333.870222 
L 498.736392 333.870222 
z
" clip-path="url(#pb9c756a8cb)" style="fill: #2c7fb8; opacity: 0.6"/>
   </g>
   <g id="patch_46">
    <path d="M 508.881847 410.398125 
L 519.027301 410.398125 
L 519.027301 349.40931 
L 508.881847 349.40931 
z
" clip-path="url(#pb9c756a8cb)" style="fill: #2c7fb8; opacity: 0.6"/>
   </g>
   <g id="patch_47">
    <path d="M 519.027301 410.398125 
L 529.172756 410.398125 
L 529.172756 347.495511 
L 519.027301 347.495511 
z
" clip-path="url(#pb9c756a8cb)" style="fill: #2c7fb8; opacity: 0.6"/>
   </g>
   <g id="patch_48">
    <path d="M 529.172756 410.398125 
L 539.31821 410.398125 
L 539.31821 408.388034 
L 529.172756 408.388034 
z
" clip-path="url(#pb9c756a8cb)" style="fill: #2c7fb8; opacity: 0.6"/>
   </g>
   <g id="patch_49">
    <path d="M 539.31821 410.398125 
L 549.463665 410.398125 
L 549.463665 410.398125 
L 539.31821 410.398125 
z
" clip-path="url(#pb9c756a8cb)" style="fill: #2c7fb8; opacity: 0.6"/>
   </g>
   <g id="patch_50">
    <path d="M 549.463665 410.398125 
L 559.609119 410.398125 
L 559.609119 379.717152 
L 549.463665 379.717152 
z
" clip-path="url(#pb9c756a8cb)" style="fill: #2c7fb8; opacity: 0.6"/>
   </g>
   <g id="patch_51">
    <path d="M 559.609119 410.398125 
L 569.754574 410.398125 
L 569.754574 404.211377 
L 559.609119 404.211377 
z
" clip-path="url(#pb9c756a8cb)" style="fill: #2c7fb8; opacity: 0.6"/>
   </g>
   <g id="patch_52">
    <path d="M 569.754574 410.398125 
L 579.900028 410.398125 
L 579.900028 402.550344 
L 569.754574 402.550344 
z
" clip-path="url(#pb9c756a8cb)" style="fill: #2c7fb8; opacity: 0.6"/>
   </g>
   <g id="patch_53">
    <path d="M 579.900028 410.398125 
L 590.045483 410.398125 
L 590.045483 400.985602 
L 579.900028 400.985602 
z
" clip-path="url(#pb9c756a8cb)" style="fill: #2c7fb8; opacity: 0.6"/>
   </g>
   <g id="patch_54">
    <path d="M 590.045483 410.398125 
L 600.190938 410.398125 
L 600.190938 404.861347 
L 590.045483 404.861347 
z
" clip-path="url(#pb9c756a8cb)" style="fill: #2c7fb8; opacity: 0.6"/>
   </g>
   <g id="patch_55">
    <path d="M 600.190938 410.398125 
L 610.336392 410.398125 
L 610.336392 409.531499 
L 600.190938 409.531499 
z
" clip-path="url(#pb9c756a8cb)" style="fill: #2c7fb8; opacity: 0.6"/>
   </g>
   <g id="patch_56">
    <path d="M 610.336392 410.398125 
L 620.481847 410.398125 
L 620.481847 396.7608 
L 610.336392 396.7608 
z
" clip-path="url(#pb9c756a8cb)" style="fill: #2c7fb8; opacity: 0.6"/>
   </g>
   <g id="patch_57">
    <path d="M 620.481847 410.398125 
L 630.627301 410.398125 
L 630.627301 410.398125 
L 620.481847 410.398125 
z
" clip-path="url(#pb9c756a8cb)" style="fill: #2c7fb8; opacity: 0.6"/>
   </g>
   <g id="patch_58">
    <path d="M 630.627301 410.398125 
L 640.772756 410.398125 
L 640.772756 408.02694 
L 630.627301 408.02694 
z
" clip-path="url(#pb9c756a8cb)" style="fill: #2c7fb8; opacity: 0.6"/>
   </g>
   <g id="patch_59">
    <path d="M 640.772756 410.398125 
L 650.91821 410.398125 
L 650.91821 410.398125 
L 640.772756 410.398125 
z
" clip-path="url(#pb9c756a8cb)" style="fill: #2c7fb8; opacity: 0.6"/>
   </g>
   <g id="patch_60">
    <path d="M 650.91821 410.398125 
L 661.063665 410.398125 
L 661.063665 410.398125 
L 650.91821 410.398125 
z
" clip-path="url(#pb9c756a8cb)" style="fill: #2c7fb8; opacity: 0.6"/>
   </g>
   <g id="patch_61">
    <path d="M 661.063665 410.398125 
L 671.209119 410.398125 
L 671.209119 390.971256 
L 661.063665 390.971256 
z
" clip-path="url(#pb9c756a8cb)" style="fill: #2c7fb8; opacity: 0.6"/>
   </g>
   <g id="patch_62">
    <path d="M 671.209119 410.398125 
L 681.354574 410.398125 
L 681.354574 398.578307 
L 671.209119 398.578307 
z
" clip-path="url(#pb9c756a8cb)" style="fill: #2c7fb8; opacity: 0.6"/>
   </g>
   <g id="patch_63">
    <path d="M 72.627301 410.398125 
L 82.772756 410.398125 
L 82.772756 286.374295 
L 72.627301 286.374295 
z
" clip-path="url(#pb9c756a8cb)" style="fill: #d95f0e; opacity: 0.6"/>
   </g>
   <g id="patch_64">
    <path d="M 82.772756 410.398125 
L 92.91821 410.398125 
L 92.91821 289.154721 
L 82.772756 289.154721 
z
" clip-path="url(#pb9c756a8cb)" style="fill: #d95f0e; opacity: 0.6"/>
   </g>
   <g id="patch_65">
    <path d="M 92.91821 410.398125 
L 103.063665 410.398125 
L 103.063665 339.764082 
L 92.91821 339.764082 
z
" clip-path="url(#pb9c756a8cb)" style="fill: #d95f0e; opacity: 0.6"/>
   </g>
   <g id="patch_66">
    <path d="M 103.063665 410.398125 
L 113.209119 410.398125 
L 113.209119 381.189614 
L 103.063665 381.189614 
z
" clip-path="url(#pb9c756a8cb)" style="fill: #d95f0e; opacity: 0.6"/>
   </g>
   <g id="patch_67">
    <path d="M 113.209119 410.398125 
L 123.354574 410.398125 
L 123.354574 292.468763 
L 113.209119 292.468763 
z
" clip-path="url(#pb9c756a8cb)" style="fill: #d95f0e; opacity: 0.6"/>
   </g>
   <g id="patch_68">
    <path d="M 123.354574 410.398125 
L 133.500028 410.398125 
L 133.500028 386.581955 
L 123.354574 386.581955 
z
" clip-path="url(#pb9c756a8cb)" style="fill: #d95f0e; opacity: 0.6"/>
   </g>
   <g id="patch_69">
    <path d="M 133.500028 410.398125 
L 143.645483 410.398125 
L 143.645483 402.000678 
L 133.500028 402.000678 
z
" clip-path="url(#pb9c756a8cb)" style="fill: #d95f0e; opacity: 0.6"/>
   </g>
   <g id="patch_70">
    <path d="M 143.645483 410.398125 
L 153.790938 410.398125 
L 153.790938 395.063657 
L 143.645483 395.063657 
z
" clip-path="url(#pb9c756a8cb)" style="fill: #d95f0e; opacity: 0.6"/>
   </g>
   <g id="patch_71">
    <path d="M 153.790937 410.398125 
L 163.936392 410.398125 
L 163.936392 375.095146 
L 153.790937 375.095146 
z
" clip-path="url(#pb9c756a8cb)" style="fill: #d95f0e; opacity: 0.6"/>
   </g>
   <g id="patch_72">
    <path d="M 163.936392 410.398125 
L 174.081847 410.398125 
L 174.081847 268.652593 
L 163.936392 268.652593 
z
" clip-path="url(#pb9c756a8cb)" style="fill: #d95f0e; opacity: 0.6"/>
   </g>
   <g id="patch_73">
    <path d="M 174.081847 410.398125 
L 184.227301 410.398125 
L 184.227301 197.035572 
L 174.081847 197.035572 
z
" clip-path="url(#pb9c756a8cb)" style="fill: #d95f0e; opacity: 0.6"/>
   </g>
   <g id="patch_74">
    <path d="M 184.227301 410.398125 
L 194.372756 410.398125 
L 194.372756 221.441529 
L 184.227301 221.441529 
z
" clip-path="url(#pb9c756a8cb)" style="fill: #d95f0e; opacity: 0.6"/>
   </g>
   <g id="patch_75">
    <path d="M 194.372756 410.398125 
L 204.51821 410.398125 
L 204.51821 278.847487 
L 194.372756 278.847487 
z
" clip-path="url(#pb9c756a8cb)" style="fill: #d95f0e; opacity: 0.6"/>
   </g>
   <g id="patch_76">
    <path d="M 204.51821 410.398125 
L 214.663665 410.398125 
L 214.663665 291.598125 
L 204.51821 291.598125 
z
" clip-path="url(#pb9c756a8cb)" style="fill: #d95f0e; opacity: 0.6"/>
   </g>
   <g id="patch_77">
    <path d="M 214.663665 410.398125 
L 224.809119 410.398125 
L 224.809119 332.995572 
L 214.663665 332.995572 
z
" clip-path="url(#pb9c756a8cb)" style="fill: #d95f0e; opacity: 0.6"/>
   </g>
   <g id="patch_78">
    <path d="M 224.809119 410.398125 
L 234.954574 410.398125 
L 234.954574 316.313019 
L 224.809119 316.313019 
z
" clip-path="url(#pb9c756a8cb)" style="fill: #d95f0e; opacity: 0.6"/>
   </g>
   <g id="patch_79">
    <path d="M 234.954574 410.398125 
L 245.100028 410.398125 
L 245.100028 279.493444 
L 234.954574 279.493444 
z
" clip-path="url(#pb9c756a8cb)" style="fill: #d95f0e; opacity: 0.6"/>
   </g>
   <g id="patch_80">
    <path d="M 245.100028 410.398125 
L 255.245483 410.398125 
L 255.245483 327.013444 
L 245.100028 327.013444 
z
" clip-path="url(#pb9c756a8cb)" style="fill: #d95f0e; opacity: 0.6"/>
   </g>
   <g id="patch_81">
    <path d="M 255.245483 410.398125 
L 265.390938 410.398125 
L 265.390938 239.977699 
L 255.245483 239.977699 
z
" clip-path="url(#pb9c756a8cb)" style="fill: #d95f0e; opacity: 0.6"/>
   </g>
   <g id="patch_82">
    <path d="M 265.390938 410.398125 
L 275.536392 410.398125 
L 275.536392 40.798125 
L 265.390938 40.798125 
z
" clip-path="url(#pb9c756a8cb)" style="fill: #d95f0e; opacity: 0.6"/>
   </g>
   <g id="patch_83">
    <path d="M 275.536392 410.398125 
L 285.681847 410.398125 
L 285.681847 299.068763 
L 275.536392 299.068763 
z
" clip-path="url(#pb9c756a8cb)" style="fill: #d95f0e; opacity: 0.6"/>
   </g>
   <g id="patch_84">
    <path d="M 285.681847 410.398125 
L 295.827301 410.398125 
L 295.827301 138.337699 
L 285.681847 138.337699 
z
" clip-path="url(#pb9c756a8cb)" style="fill: #d95f0e; opacity: 0.6"/>
   </g>
   <g id="patch_85">
    <path d="M 295.827301 410.398125 
L 305.972756 410.398125 
L 305.972756 154.570891 
L 295.827301 154.570891 
z
" clip-path="url(#pb9c756a8cb)" style="fill: #d95f0e; opacity: 0.6"/>
   </g>
   <g id="patch_86">
    <path d="M 305.972756 410.398125 
L 316.11821 410.398125 
L 316.11821 297.439827 
L 305.972756 297.439827 
z
" clip-path="url(#pb9c756a8cb)" style="fill: #d95f0e; opacity: 0.6"/>
   </g>
   <g id="patch_87">
    <path d="M 316.11821 410.398125 
L 326.263665 410.398125 
L 326.263665 228.575146 
L 316.11821 228.575146 
z
" clip-path="url(#pb9c756a8cb)" style="fill: #d95f0e; opacity: 0.6"/>
   </g>
   <g id="patch_88">
    <path d="M 326.263665 410.398125 
L 336.409119 410.398125 
L 336.409119 282.554721 
L 326.263665 282.554721 
z
" clip-path="url(#pb9c756a8cb)" style="fill: #d95f0e; opacity: 0.6"/>
   </g>
   <g id="patch_89">
    <path d="M 336.409119 410.398125 
L 346.554574 410.398125 
L 346.554574 263.204082 
L 336.409119 263.204082 
z
" clip-path="url(#pb9c756a8cb)" style="fill: #d95f0e; opacity: 0.6"/>
   </g>
   <g id="patch_90">
    <path d="M 346.554574 410.398125 
L 356.700028 410.398125 
L 356.700028 349.341104 
L 346.554574 349.341104 
z
" clip-path="url(#pb9c756a8cb)" style="fill: #d95f0e; opacity: 0.6"/>
   </g>
   <g id="patch_91">
    <path d="M 356.700028 410.398125 
L 366.845483 410.398125 
L 366.845483 343.246636 
L 356.700028 343.246636 
z
" clip-path="url(#pb9c756a8cb)" style="fill: #d95f0e; opacity: 0.6"/>
   </g>
   <g id="patch_92">
    <path d="M 366.845483 410.398125 
L 376.990937 410.398125 
L 376.990937 283.790465 
L 366.845483 283.790465 
z
" clip-path="url(#pb9c756a8cb)" style="fill: #d95f0e; opacity: 0.6"/>
   </g>
   <g id="patch_93">
    <path d="M 376.990938 410.398125 
L 387.136392 410.398125 
L 387.136392 373.859402 
L 376.990938 373.859402 
z
" clip-path="url(#pb9c756a8cb)" style="fill: #d95f0e; opacity: 0.6"/>
   </g>
   <g id="patch_94">
    <path d="M 387.136392 410.398125 
L 397.281847 410.398125 
L 397.281847 175.494295 
L 387.136392 175.494295 
z
" clip-path="url(#pb9c756a8cb)" style="fill: #d95f0e; opacity: 0.6"/>
   </g>
   <g id="patch_95">
    <path d="M 397.281847 410.398125 
L 407.427301 410.398125 
L 407.427301 309.038976 
L 397.281847 309.038976 
z
" clip-path="url(#pb9c756a8cb)" style="fill: #d95f0e; opacity: 0.6"/>
   </g>
   <g id="patch_96">
    <path d="M 407.427301 410.398125 
L 417.572756 410.398125 
L 417.572756 378.718125 
L 407.427301 378.718125 
z
" clip-path="url(#pb9c756a8cb)" style="fill: #d95f0e; opacity: 0.6"/>
   </g>
   <g id="patch_97">
    <path d="M 417.572756 410.398125 
L 427.71821 410.398125 
L 427.71821 331.141955 
L 417.572756 331.141955 
z
" clip-path="url(#pb9c756a8cb)" style="fill: #d95f0e; opacity: 0.6"/>
   </g>
   <g id="patch_98">
    <path d="M 427.71821 410.398125 
L 437.863665 410.398125 
L 437.863665 343.555572 
L 427.71821 343.555572 
z
" clip-path="url(#pb9c756a8cb)" style="fill: #d95f0e; opacity: 0.6"/>
   </g>
   <g id="patch_99">
    <path d="M 437.863665 410.398125 
L 448.009119 410.398125 
L 448.009119 373.41004 
L 437.863665 373.41004 
z
" clip-path="url(#pb9c756a8cb)" style="fill: #d95f0e; opacity: 0.6"/>
   </g>
   <g id="patch_100">
    <path d="M 448.009119 410.398125 
L 458.154574 410.398125 
L 458.154574 349.284934 
L 448.009119 349.284934 
z
" clip-path="url(#pb9c756a8cb)" style="fill: #d95f0e; opacity: 0.6"/>
   </g>
   <g id="patch_101">
    <path d="M 458.154574 410.398125 
L 468.300028 410.398125 
L 468.300028 351.194721 
L 458.154574 351.194721 
z
" clip-path="url(#pb9c756a8cb)" style="fill: #d95f0e; opacity: 0.6"/>
   </g>
   <g id="patch_102">
    <path d="M 468.300028 410.398125 
L 478.445483 410.398125 
L 478.445483 343.330891 
L 468.300028 343.330891 
z
" clip-path="url(#pb9c756a8cb)" style="fill: #d95f0e; opacity: 0.6"/>
   </g>
   <g id="patch_103">
    <path d="M 478.445483 410.398125 
L 488.590938 410.398125 
L 488.590938 391.581104 
L 478.445483 391.581104 
z
" clip-path="url(#pb9c756a8cb)" style="fill: #d95f0e; opacity: 0.6"/>
   </g>
   <g id="patch_104">
    <path d="M 488.590938 410.398125 
L 498.736392 410.398125 
L 498.736392 402.56238 
L 488.590938 402.56238 
z
" clip-path="url(#pb9c756a8cb)" style="fill: #d95f0e; opacity: 0.6"/>
   </g>
   <g id="patch_105">
    <path d="M 498.736392 410.398125 
L 508.881847 410.398125 
L 508.881847 328.052593 
L 498.736392 328.052593 
z
" clip-path="url(#pb9c756a8cb)" style="fill: #d95f0e; opacity: 0.6"/>
   </g>
   <g id="patch_106">
    <path d="M 508.881847 410.398125 
L 519.027301 410.398125 
L 519.027301 350.717274 
L 508.881847 350.717274 
z
" clip-path="url(#pb9c756a8cb)" style="fill: #d95f0e; opacity: 0.6"/>
   </g>
   <g id="patch_107">
    <path d="M 519.027301 410.398125 
L 529.172756 410.398125 
L 529.172756 348.863657 
L 519.027301 348.863657 
z
" clip-path="url(#pb9c756a8cb)" style="fill: #d95f0e; opacity: 0.6"/>
   </g>
   <g id="patch_108">
    <path d="M 529.172756 410.398125 
L 539.31821 410.398125 
L 539.31821 408.067061 
L 529.172756 408.067061 
z
" clip-path="url(#pb9c756a8cb)" style="fill: #d95f0e; opacity: 0.6"/>
   </g>
   <g id="patch_109">
    <path d="M 539.31821 410.398125 
L 549.463665 410.398125 
L 549.463665 410.398125 
L 539.31821 410.398125 
z
" clip-path="url(#pb9c756a8cb)" style="fill: #d95f0e; opacity: 0.6"/>
   </g>
   <g id="patch_110">
    <path d="M 549.463665 410.398125 
L 559.609119 410.398125 
L 559.609119 380.768338 
L 549.463665 380.768338 
z
" clip-path="url(#pb9c756a8cb)" style="fill: #d95f0e; opacity: 0.6"/>
   </g>
   <g id="patch_111">
    <path d="M 559.609119 410.398125 
L 569.754574 410.398125 
L 569.754574 404.949614 
L 559.609119 404.949614 
z
" clip-path="url(#pb9c756a8cb)" style="fill: #d95f0e; opacity: 0.6"/>
   </g>
   <g id="patch_112">
    <path d="M 569.754574 410.398125 
L 579.900028 410.398125 
L 579.900028 402.478125 
L 569.754574 402.478125 
z
" clip-path="url(#pb9c756a8cb)" style="fill: #d95f0e; opacity: 0.6"/>
   </g>
   <g id="patch_113">
    <path d="M 579.900028 410.398125 
L 590.045483 410.398125 
L 590.045483 401.663657 
L 579.900028 401.663657 
z
" clip-path="url(#pb9c756a8cb)" style="fill: #d95f0e; opacity: 0.6"/>
   </g>
   <g id="patch_114">
    <path d="M 590.045483 410.398125 
L 600.190938 410.398125 
L 600.190938 405.679827 
L 590.045483 405.679827 
z
" clip-path="url(#pb9c756a8cb)" style="fill: #d95f0e; opacity: 0.6"/>
   </g>
   <g id="patch_115">
    <path d="M 600.190938 410.398125 
L 610.336392 410.398125 
L 610.336392 409.330891 
L 600.190938 409.330891 
z
" clip-path="url(#pb9c756a8cb)" style="fill: #d95f0e; opacity: 0.6"/>
   </g>
   <g id="patch_116">
    <path d="M 610.336392 410.398125 
L 620.481847 410.398125 
L 620.481847 396.608338 
L 610.336392 396.608338 
z
" clip-path="url(#pb9c756a8cb)" style="fill: #d95f0e; opacity: 0.6"/>
   </g>
   <g id="patch_117">
    <path d="M 620.481847 410.398125 
L 630.627301 410.398125 
L 630.627301 410.398125 
L 620.481847 410.398125 
z
" clip-path="url(#pb9c756a8cb)" style="fill: #d95f0e; opacity: 0.6"/>
   </g>
   <g id="patch_118">
    <path d="M 630.627301 410.398125 
L 640.772756 410.398125 
L 640.772756 408.151316 
L 630.627301 408.151316 
z
" clip-path="url(#pb9c756a8cb)" style="fill: #d95f0e; opacity: 0.6"/>
   </g>
   <g id="patch_119">
    <path d="M 640.772756 410.398125 
L 650.91821 410.398125 
L 650.91821 410.398125 
L 640.772756 410.398125 
z
" clip-path="url(#pb9c756a8cb)" style="fill: #d95f0e; opacity: 0.6"/>
   </g>
   <g id="patch_120">
    <path d="M 650.91821 410.398125 
L 661.063665 410.398125 
L 661.063665 410.398125 
L 650.91821 410.398125 
z
" clip-path="url(#pb9c756a8cb)" style="fill: #d95f0e; opacity: 0.6"/>
   </g>
   <g id="patch_121">
    <path d="M 661.063665 410.398125 
L 671.209119 410.398125 
L 671.209119 389.671316 
L 661.063665 389.671316 
z
" clip-path="url(#pb9c756a8cb)" style="fill: #d95f0e; opacity: 0.6"/>
   </g>
   <g id="patch_122">
    <path d="M 671.209119 410.398125 
L 681.354574 410.398125 
L 681.354574 398.883231 
L 671.209119 398.883231 
z
" clip-path="url(#pb9c756a8cb)" style="fill: #d95f0e; opacity: 0.6"/>
   </g>
   <g id="matplotlib.axis_1">
    <g id="xtick_1">
     <g id="line2d_1">
      <path d="M 71.65974 410.398125 
L 71.65974 22.318125 
" clip-path="url(#pb9c756a8cb)" style="fill: none; stroke: #e6e6e6; stroke-opacity: 0.6; stroke-width: 0.8; stroke-linecap: square"/>
     </g>
     <g id="line2d_2">
      <defs>
       <path id="m674918e35d" d="M 0 0 
L 0 3.5 
" style="stroke: #000000; stroke-width: 0.8"/>
      </defs>
      <g>
       <use xlink:href="#m674918e35d" x="71.65974" y="410.398125" style="stroke: #000000; stroke-width: 0.8"/>
      </g>
     </g>
     <g id="text_1">
      <!-- 8 -->
      <g transform="translate(68.796615 424.236719) scale(0.09 -0.09)">
       <defs>
        <path id="DejaVuSans-38" d="M 2034 2216 
Q 1584 2216 1326 1975 
Q 1069 1734 1069 1313 
Q 1069 891 1326 650 
Q 1584 409 2034 409 
Q 2484 409 2743 651 
Q 3003 894 3003 1313 
Q 3003 1734 2745 1975 
Q 2488 2216 2034 2216 
z
M 1403 2484 
Q 997 2584 770 2862 
Q 544 3141 544 3541 
Q 544 4100 942 4425 
Q 1341 4750 2034 4750 
Q 2731 4750 3128 4425 
Q 3525 4100 3525 3541 
Q 3525 3141 3298 2862 
Q 3072 2584 2669 2484 
Q 3125 2378 3379 2068 
Q 3634 1759 3634 1313 
Q 3634 634 3220 271 
Q 2806 -91 2034 -91 
Q 1263 -91 848 271 
Q 434 634 434 1313 
Q 434 1759 690 2068 
Q 947 2378 1403 2484 
z
M 1172 3481 
Q 1172 3119 1398 2916 
Q 1625 2713 2034 2713 
Q 2441 2713 2670 2916 
Q 2900 3119 2900 3481 
Q 2900 3844 2670 4047 
Q 2441 4250 2034 4250 
Q 1625 4250 1398 4047 
Q 1172 3844 1172 3481 
z
" transform="scale(0.015625)"/>
       </defs>
       <use xlink:href="#DejaVuSans-38"/>
      </g>
     </g>
    </g>
    <g id="xtick_2">
     <g id="line2d_3">
      <path d="M 216.053601 410.398125 
L 216.053601 22.318125 
" clip-path="url(#pb9c756a8cb)" style="fill: none; stroke: #e6e6e6; stroke-opacity: 0.6; stroke-width: 0.8; stroke-linecap: square"/>
     </g>
     <g id="line2d_4">
      <g>
       <use xlink:href="#m674918e35d" x="216.053601" y="410.398125" style="stroke: #000000; stroke-width: 0.8"/>
      </g>
     </g>
     <g id="text_2">
      <!-- 9 -->
      <g transform="translate(213.190476 424.236719) scale(0.09 -0.09)">
       <defs>
        <path id="DejaVuSans-39" d="M 703 97 
L 703 672 
Q 941 559 1184 500 
Q 1428 441 1663 441 
Q 2288 441 2617 861 
Q 2947 1281 2994 2138 
Q 2813 1869 2534 1725 
Q 2256 1581 1919 1581 
Q 1219 1581 811 2004 
Q 403 2428 403 3163 
Q 403 3881 828 4315 
Q 1253 4750 1959 4750 
Q 2769 4750 3195 4129 
Q 3622 3509 3622 2328 
Q 3622 1225 3098 567 
Q 2575 -91 1691 -91 
Q 1453 -91 1209 -44 
Q 966 3 703 97 
z
M 1959 2075 
Q 2384 2075 2632 2365 
Q 2881 2656 2881 3163 
Q 2881 3666 2632 3958 
Q 2384 4250 1959 4250 
Q 1534 4250 1286 3958 
Q 1038 3666 1038 3163 
Q 1038 2656 1286 2365 
Q 1534 2075 1959 2075 
z
" transform="scale(0.015625)"/>
       </defs>
       <use xlink:href="#DejaVuSans-39"/>
      </g>
     </g>
    </g>
    <g id="xtick_3">
     <g id="line2d_5">
      <path d="M 360.447461 410.398125 
L 360.447461 22.318125 
" clip-path="url(#pb9c756a8cb)" style="fill: none; stroke: #e6e6e6; stroke-opacity: 0.6; stroke-width: 0.8; stroke-linecap: square"/>
     </g>
     <g id="line2d_6">
      <g>
       <use xlink:href="#m674918e35d" x="360.447461" y="410.398125" style="stroke: #000000; stroke-width: 0.8"/>
      </g>
     </g>
     <g id="text_3">
      <!-- 10 -->
      <g transform="translate(354.721211 424.236719) scale(0.09 -0.09)">
       <defs>
        <path id="DejaVuSans-31" d="M 794 531 
L 1825 531 
L 1825 4091 
L 703 3866 
L 703 4441 
L 1819 4666 
L 2450 4666 
L 2450 531 
L 3481 531 
L 3481 0 
L 794 0 
L 794 531 
z
" transform="scale(0.015625)"/>
        <path id="DejaVuSans-30" d="M 2034 4250 
Q 1547 4250 1301 3770 
Q 1056 3291 1056 2328 
Q 1056 1369 1301 889 
Q 1547 409 2034 409 
Q 2525 409 2770 889 
Q 3016 1369 3016 2328 
Q 3016 3291 2770 3770 
Q 2525 4250 2034 4250 
z
M 2034 4750 
Q 2819 4750 3233 4129 
Q 3647 3509 3647 2328 
Q 3647 1150 3233 529 
Q 2819 -91 2034 -91 
Q 1250 -91 836 529 
Q 422 1150 422 2328 
Q 422 3509 836 4129 
Q 1250 4750 2034 4750 
z
" transform="scale(0.015625)"/>
       </defs>
       <use xlink:href="#DejaVuSans-31"/>
       <use xlink:href="#DejaVuSans-30" transform="translate(63.623047 0)"/>
      </g>
     </g>
    </g>
    <g id="xtick_4">
     <g id="line2d_7">
      <path d="M 504.841322 410.398125 
L 504.841322 22.318125 
" clip-path="url(#pb9c756a8cb)" style="fill: none; stroke: #e6e6e6; stroke-opacity: 0.6; stroke-width: 0.8; stroke-linecap: square"/>
     </g>
     <g id="line2d_8">
      <g>
       <use xlink:href="#m674918e35d" x="504.841322" y="410.398125" style="stroke: #000000; stroke-width: 0.8"/>
      </g>
     </g>
     <g id="text_4">
      <!-- 11 -->
      <g transform="translate(499.115072 424.236719) scale(0.09 -0.09)">
       <use xlink:href="#DejaVuSans-31"/>
       <use xlink:href="#DejaVuSans-31" transform="translate(63.623047 0)"/>
      </g>
     </g>
    </g>
    <g id="xtick_5">
     <g id="line2d_9">
      <path d="M 649.235182 410.398125 
L 649.235182 22.318125 
" clip-path="url(#pb9c756a8cb)" style="fill: none; stroke: #e6e6e6; stroke-opacity: 0.6; stroke-width: 0.8; stroke-linecap: square"/>
     </g>
     <g id="line2d_10">
      <g>
       <use xlink:href="#m674918e35d" x="649.235182" y="410.398125" style="stroke: #000000; stroke-width: 0.8"/>
      </g>
     </g>
     <g id="text_5">
      <!-- 12 -->
      <g transform="translate(643.508932 424.236719) scale(0.09 -0.09)">
       <defs>
        <path id="DejaVuSans-32" d="M 1228 531 
L 3431 531 
L 3431 0 
L 469 0 
L 469 531 
Q 828 903 1448 1529 
Q 2069 2156 2228 2338 
Q 2531 2678 2651 2914 
Q 2772 3150 2772 3378 
Q 2772 3750 2511 3984 
Q 2250 4219 1831 4219 
Q 1534 4219 1204 4116 
Q 875 4013 500 3803 
L 500 4441 
Q 881 4594 1212 4672 
Q 1544 4750 1819 4750 
Q 2544 4750 2975 4387 
Q 3406 4025 3406 3419 
Q 3406 3131 3298 2873 
Q 3191 2616 2906 2266 
Q 2828 2175 2409 1742 
Q 1991 1309 1228 531 
z
" transform="scale(0.015625)"/>
       </defs>
       <use xlink:href="#DejaVuSans-31"/>
       <use xlink:href="#DejaVuSans-32" transform="translate(63.623047 0)"/>
      </g>
     </g>
    </g>
    <g id="text_6">
     <!-- log1p(amount) -->
     <g transform="translate(339.819844 437.706875) scale(0.1 -0.1)">
      <defs>
       <path id="DejaVuSans-6c" d="M 603 4863 
L 1178 4863 
L 1178 0 
L 603 0 
L 603 4863 
z
" transform="scale(0.015625)"/>
       <path id="DejaVuSans-6f" d="M 1959 3097 
Q 1497 3097 1228 2736 
Q 959 2375 959 1747 
Q 959 1119 1226 758 
Q 1494 397 1959 397 
Q 2419 397 2687 759 
Q 2956 1122 2956 1747 
Q 2956 2369 2687 2733 
Q 2419 3097 1959 3097 
z
M 1959 3584 
Q 2709 3584 3137 3096 
Q 3566 2609 3566 1747 
Q 3566 888 3137 398 
Q 2709 -91 1959 -91 
Q 1206 -91 779 398 
Q 353 888 353 1747 
Q 353 2609 779 3096 
Q 1206 3584 1959 3584 
z
" transform="scale(0.015625)"/>
       <path id="DejaVuSans-67" d="M 2906 1791 
Q 2906 2416 2648 2759 
Q 2391 3103 1925 3103 
Q 1463 3103 1205 2759 
Q 947 2416 947 1791 
Q 947 1169 1205 825 
Q 1463 481 1925 481 
Q 2391 481 2648 825 
Q 2906 1169 2906 1791 
z
M 3481 434 
Q 3481 -459 3084 -895 
Q 2688 -1331 1869 -1331 
Q 1566 -1331 1297 -1286 
Q 1028 -1241 775 -1147 
L 775 -588 
Q 1028 -725 1275 -790 
Q 1522 -856 1778 -856 
Q 2344 -856 2625 -561 
Q 2906 -266 2906 331 
L 2906 616 
Q 2728 306 2450 153 
Q 2172 0 1784 0 
Q 1141 0 747 490 
Q 353 981 353 1791 
Q 353 2603 747 3093 
Q 1141 3584 1784 3584 
Q 2172 3584 2450 3431 
Q 2728 3278 2906 2969 
L 2906 3500 
L 3481 3500 
L 3481 434 
z
" transform="scale(0.015625)"/>
       <path id="DejaVuSans-70" d="M 1159 525 
L 1159 -1331 
L 581 -1331 
L 581 3500 
L 1159 3500 
L 1159 2969 
Q 1341 3281 1617 3432 
Q 1894 3584 2278 3584 
Q 2916 3584 3314 3078 
Q 3713 2572 3713 1747 
Q 3713 922 3314 415 
Q 2916 -91 2278 -91 
Q 1894 -91 1617 61 
Q 1341 213 1159 525 
z
M 3116 1747 
Q 3116 2381 2855 2742 
Q 2594 3103 2138 3103 
Q 1681 3103 1420 2742 
Q 1159 2381 1159 1747 
Q 1159 1113 1420 752 
Q 1681 391 2138 391 
Q 2594 391 2855 752 
Q 3116 1113 3116 1747 
z
" transform="scale(0.015625)"/>
       <path id="DejaVuSans-28" d="M 1984 4856 
Q 1566 4138 1362 3434 
Q 1159 2731 1159 2009 
Q 1159 1288 1364 580 
Q 1569 -128 1984 -844 
L 1484 -844 
Q 1016 -109 783 600 
Q 550 1309 550 2009 
Q 550 2706 781 3412 
Q 1013 4119 1484 4856 
L 1984 4856 
z
" transform="scale(0.015625)"/>
       <path id="DejaVuSans-61" d="M 2194 1759 
Q 1497 1759 1228 1600 
Q 959 1441 959 1056 
Q 959 750 1161 570 
Q 1363 391 1709 391 
Q 2188 391 2477 730 
Q 2766 1069 2766 1631 
L 2766 1759 
L 2194 1759 
z
M 3341 1997 
L 3341 0 
L 2766 0 
L 2766 531 
Q 2569 213 2275 61 
Q 1981 -91 1556 -91 
Q 1019 -91 701 211 
Q 384 513 384 1019 
Q 384 1609 779 1909 
Q 1175 2209 1959 2209 
L 2766 2209 
L 2766 2266 
Q 2766 2663 2505 2880 
Q 2244 3097 1772 3097 
Q 1472 3097 1187 3025 
Q 903 2953 641 2809 
L 641 3341 
Q 956 3463 1253 3523 
Q 1550 3584 1831 3584 
Q 2591 3584 2966 3190 
Q 3341 2797 3341 1997 
z
" transform="scale(0.015625)"/>
       <path id="DejaVuSans-6d" d="M 3328 2828 
Q 3544 3216 3844 3400 
Q 4144 3584 4550 3584 
Q 5097 3584 5394 3201 
Q 5691 2819 5691 2113 
L 5691 0 
L 5113 0 
L 5113 2094 
Q 5113 2597 4934 2840 
Q 4756 3084 4391 3084 
Q 3944 3084 3684 2787 
Q 3425 2491 3425 1978 
L 3425 0 
L 2847 0 
L 2847 2094 
Q 2847 2600 2669 2842 
Q 2491 3084 2119 3084 
Q 1678 3084 1418 2786 
Q 1159 2488 1159 1978 
L 1159 0 
L 581 0 
L 581 3500 
L 1159 3500 
L 1159 2956 
Q 1356 3278 1631 3431 
Q 1906 3584 2284 3584 
Q 2666 3584 2933 3390 
Q 3200 3197 3328 2828 
z
" transform="scale(0.015625)"/>
       <path id="DejaVuSans-75" d="M 544 1381 
L 544 3500 
L 1119 3500 
L 1119 1403 
Q 1119 906 1312 657 
Q 1506 409 1894 409 
Q 2359 409 2629 706 
Q 2900 1003 2900 1516 
L 2900 3500 
L 3475 3500 
L 3475 0 
L 2900 0 
L 2900 538 
Q 2691 219 2414 64 
Q 2138 -91 1772 -91 
Q 1169 -91 856 284 
Q 544 659 544 1381 
z
M 1991 3584 
L 1991 3584 
z
" transform="scale(0.015625)"/>
       <path id="DejaVuSans-6e" d="M 3513 2113 
L 3513 0 
L 2938 0 
L 2938 2094 
Q 2938 2591 2744 2837 
Q 2550 3084 2163 3084 
Q 1697 3084 1428 2787 
Q 1159 2491 1159 1978 
L 1159 0 
L 581 0 
L 581 3500 
L 1159 3500 
L 1159 2956 
Q 1366 3272 1645 3428 
Q 1925 3584 2291 3584 
Q 2894 3584 3203 3211 
Q 3513 2838 3513 2113 
z
" transform="scale(0.015625)"/>
       <path id="DejaVuSans-74" d="M 1172 4494 
L 1172 3500 
L 2356 3500 
L 2356 3053 
L 1172 3053 
L 1172 1153 
Q 1172 725 1289 603 
Q 1406 481 1766 481 
L 2356 481 
L 2356 0 
L 1766 0 
Q 1100 0 847 248 
Q 594 497 594 1153 
L 594 3053 
L 172 3053 
L 172 3500 
L 594 3500 
L 594 4494 
L 1172 4494 
z
" transform="scale(0.015625)"/>
       <path id="DejaVuSans-29" d="M 513 4856 
L 1013 4856 
Q 1481 4119 1714 3412 
Q 1947 2706 1947 2009 
Q 1947 1309 1714 600 
Q 1481 -109 1013 -844 
L 513 -844 
Q 928 -128 1133 580 
Q 1338 1288 1338 2009 
Q 1338 2731 1133 3434 
Q 928 4138 513 4856 
z
" transform="scale(0.015625)"/>
      </defs>
      <use xlink:href="#DejaVuSans-6c"/>
      <use xlink:href="#DejaVuSans-6f" transform="translate(27.783203 0)"/>
      <use xlink:href="#DejaVuSans-67" transform="translate(88.964844 0)"/>
      <use xlink:href="#DejaVuSans-31" transform="translate(152.441406 0)"/>
      <use xlink:href="#DejaVuSans-70" transform="translate(216.064453 0)"/>
      <use xlink:href="#DejaVuSans-28" transform="translate(279.541016 0)"/>
      <use xlink:href="#DejaVuSans-61" transform="translate(318.554688 0)"/>
      <use xlink:href="#DejaVuSans-6d" transform="translate(379.833984 0)"/>
      <use xlink:href="#DejaVuSans-6f" transform="translate(477.246094 0)"/>
      <use xlink:href="#DejaVuSans-75" transform="translate(538.427734 0)"/>
      <use xlink:href="#DejaVuSans-6e" transform="translate(601.806641 0)"/>
      <use xlink:href="#DejaVuSans-74" transform="translate(665.185547 0)"/>
      <use xlink:href="#DejaVuSans-29" transform="translate(704.394531 0)"/>
     </g>
    </g>
   </g>
   <g id="matplotlib.axis_2">
    <g id="ytick_1">
     <g id="line2d_11">
      <path d="M 42.190938 410.398125 
L 711.790938 410.398125 
" clip-path="url(#pb9c756a8cb)" style="fill: none; stroke-dasharray: 2.96,1.28; stroke-dashoffset: 0; stroke: #e6e6e6; stroke-opacity: 0.4; stroke-width: 0.8"/>
     </g>
     <g id="line2d_12">
      <defs>
       <path id="m4be58cbb24" d="M 0 0 
L -3.5 0 
" style="stroke: #000000; stroke-width: 0.8"/>
      </defs>
      <g>
       <use xlink:href="#m4be58cbb24" x="42.190938" y="410.398125" style="stroke: #000000; stroke-width: 0.8"/>
      </g>
     </g>
     <g id="text_7">
      <!-- 0.0 -->
      <g transform="translate(20.878125 413.817422) scale(0.09 -0.09)">
       <defs>
        <path id="DejaVuSans-2e" d="M 684 794 
L 1344 794 
L 1344 0 
L 684 0 
L 684 794 
z
" transform="scale(0.015625)"/>
       </defs>
       <use xlink:href="#DejaVuSans-30"/>
       <use xlink:href="#DejaVuSans-2e" transform="translate(63.623047 0)"/>
       <use xlink:href="#DejaVuSans-30" transform="translate(95.410156 0)"/>
      </g>
     </g>
    </g>
    <g id="ytick_2">
     <g id="line2d_13">
      <path d="M 42.190938 342.338503 
L 711.790938 342.338503 
" clip-path="url(#pb9c756a8cb)" style="fill: none; stroke-dasharray: 2.96,1.28; stroke-dashoffset: 0; stroke: #e6e6e6; stroke-opacity: 0.4; stroke-width: 0.8"/>
     </g>
     <g id="line2d_14">
      <g>
       <use xlink:href="#m4be58cbb24" x="42.190938" y="342.338503" style="stroke: #000000; stroke-width: 0.8"/>
      </g>
     </g>
     <g id="text_8">
      <!-- 0.2 -->
      <g transform="translate(20.878125 345.7578) scale(0.09 -0.09)">
       <use xlink:href="#DejaVuSans-30"/>
       <use xlink:href="#DejaVuSans-2e" transform="translate(63.623047 0)"/>
       <use xlink:href="#DejaVuSans-32" transform="translate(95.410156 0)"/>
      </g>
     </g>
    </g>
    <g id="ytick_3">
     <g id="line2d_15">
      <path d="M 42.190938 274.278882 
L 711.790938 274.278882 
" clip-path="url(#pb9c756a8cb)" style="fill: none; stroke-dasharray: 2.96,1.28; stroke-dashoffset: 0; stroke: #e6e6e6; stroke-opacity: 0.4; stroke-width: 0.8"/>
     </g>
     <g id="line2d_16">
      <g>
       <use xlink:href="#m4be58cbb24" x="42.190938" y="274.278882" style="stroke: #000000; stroke-width: 0.8"/>
      </g>
     </g>
     <g id="text_9">
      <!-- 0.4 -->
      <g transform="translate(20.878125 277.698178) scale(0.09 -0.09)">
       <defs>
        <path id="DejaVuSans-34" d="M 2419 4116 
L 825 1625 
L 2419 1625 
L 2419 4116 
z
M 2253 4666 
L 3047 4666 
L 3047 1625 
L 3713 1625 
L 3713 1100 
L 3047 1100 
L 3047 0 
L 2419 0 
L 2419 1100 
L 313 1100 
L 313 1709 
L 2253 4666 
z
" transform="scale(0.015625)"/>
       </defs>
       <use xlink:href="#DejaVuSans-30"/>
       <use xlink:href="#DejaVuSans-2e" transform="translate(63.623047 0)"/>
       <use xlink:href="#DejaVuSans-34" transform="translate(95.410156 0)"/>
      </g>
     </g>
    </g>
    <g id="ytick_4">
     <g id="line2d_17">
      <path d="M 42.190938 206.21926 
L 711.790938 206.21926 
" clip-path="url(#pb9c756a8cb)" style="fill: none; stroke-dasharray: 2.96,1.28; stroke-dashoffset: 0; stroke: #e6e6e6; stroke-opacity: 0.4; stroke-width: 0.8"/>
     </g>
     <g id="line2d_18">
      <g>
       <use xlink:href="#m4be58cbb24" x="42.190938" y="206.21926" style="stroke: #000000; stroke-width: 0.8"/>
      </g>
     </g>
     <g id="text_10">
      <!-- 0.6 -->
      <g transform="translate(20.878125 209.638557) scale(0.09 -0.09)">
       <defs>
        <path id="DejaVuSans-36" d="M 2113 2584 
Q 1688 2584 1439 2293 
Q 1191 2003 1191 1497 
Q 1191 994 1439 701 
Q 1688 409 2113 409 
Q 2538 409 2786 701 
Q 3034 994 3034 1497 
Q 3034 2003 2786 2293 
Q 2538 2584 2113 2584 
z
M 3366 4563 
L 3366 3988 
Q 3128 4100 2886 4159 
Q 2644 4219 2406 4219 
Q 1781 4219 1451 3797 
Q 1122 3375 1075 2522 
Q 1259 2794 1537 2939 
Q 1816 3084 2150 3084 
Q 2853 3084 3261 2657 
Q 3669 2231 3669 1497 
Q 3669 778 3244 343 
Q 2819 -91 2113 -91 
Q 1303 -91 875 529 
Q 447 1150 447 2328 
Q 447 3434 972 4092 
Q 1497 4750 2381 4750 
Q 2619 4750 2861 4703 
Q 3103 4656 3366 4563 
z
" transform="scale(0.015625)"/>
       </defs>
       <use xlink:href="#DejaVuSans-30"/>
       <use xlink:href="#DejaVuSans-2e" transform="translate(63.623047 0)"/>
       <use xlink:href="#DejaVuSans-36" transform="translate(95.410156 0)"/>
      </g>
     </g>
    </g>
    <g id="ytick_5">
     <g id="line2d_19">
      <path d="M 42.190938 138.159638 
L 711.790938 138.159638 
" clip-path="url(#pb9c756a8cb)" style="fill: none; stroke-dasharray: 2.96,1.28; stroke-dashoffset: 0; stroke: #e6e6e6; stroke-opacity: 0.4; stroke-width: 0.8"/>
     </g>
     <g id="line2d_20">
      <g>
       <use xlink:href="#m4be58cbb24" x="42.190938" y="138.159638" style="stroke: #000000; stroke-width: 0.8"/>
      </g>
     </g>
     <g id="text_11">
      <!-- 0.8 -->
      <g transform="translate(20.878125 141.578935) scale(0.09 -0.09)">
       <use xlink:href="#DejaVuSans-30"/>
       <use xlink:href="#DejaVuSans-2e" transform="translate(63.623047 0)"/>
       <use xlink:href="#DejaVuSans-38" transform="translate(95.410156 0)"/>
      </g>
     </g>
    </g>
    <g id="ytick_6">
     <g id="line2d_21">
      <path d="M 42.190938 70.100016 
L 711.790938 70.100016 
" clip-path="url(#pb9c756a8cb)" style="fill: none; stroke-dasharray: 2.96,1.28; stroke-dashoffset: 0; stroke: #e6e6e6; stroke-opacity: 0.4; stroke-width: 0.8"/>
     </g>
     <g id="line2d_22">
      <g>
       <use xlink:href="#m4be58cbb24" x="42.190938" y="70.100016" style="stroke: #000000; stroke-width: 0.8"/>
      </g>
     </g>
     <g id="text_12">
      <!-- 1.0 -->
      <g transform="translate(20.878125 73.519313) scale(0.09 -0.09)">
       <use xlink:href="#DejaVuSans-31"/>
       <use xlink:href="#DejaVuSans-2e" transform="translate(63.623047 0)"/>
       <use xlink:href="#DejaVuSans-30" transform="translate(95.410156 0)"/>
      </g>
     </g>
    </g>
    <g id="text_13">
     <!-- Density -->
     <g transform="translate(14.798438 235.366719) rotate(-90) scale(0.1 -0.1)">
      <defs>
       <path id="DejaVuSans-44" d="M 1259 4147 
L 1259 519 
L 2022 519 
Q 2988 519 3436 956 
Q 3884 1394 3884 2338 
Q 3884 3275 3436 3711 
Q 2988 4147 2022 4147 
L 1259 4147 
z
M 628 4666 
L 1925 4666 
Q 3281 4666 3915 4102 
Q 4550 3538 4550 2338 
Q 4550 1131 3912 565 
Q 3275 0 1925 0 
L 628 0 
L 628 4666 
z
" transform="scale(0.015625)"/>
       <path id="DejaVuSans-65" d="M 3597 1894 
L 3597 1613 
L 953 1613 
Q 991 1019 1311 708 
Q 1631 397 2203 397 
Q 2534 397 2845 478 
Q 3156 559 3463 722 
L 3463 178 
Q 3153 47 2828 -22 
Q 2503 -91 2169 -91 
Q 1331 -91 842 396 
Q 353 884 353 1716 
Q 353 2575 817 3079 
Q 1281 3584 2069 3584 
Q 2775 3584 3186 3129 
Q 3597 2675 3597 1894 
z
M 3022 2063 
Q 3016 2534 2758 2815 
Q 2500 3097 2075 3097 
Q 1594 3097 1305 2825 
Q 1016 2553 972 2059 
L 3022 2063 
z
" transform="scale(0.015625)"/>
       <path id="DejaVuSans-73" d="M 2834 3397 
L 2834 2853 
Q 2591 2978 2328 3040 
Q 2066 3103 1784 3103 
Q 1356 3103 1142 2972 
Q 928 2841 928 2578 
Q 928 2378 1081 2264 
Q 1234 2150 1697 2047 
L 1894 2003 
Q 2506 1872 2764 1633 
Q 3022 1394 3022 966 
Q 3022 478 2636 193 
Q 2250 -91 1575 -91 
Q 1294 -91 989 -36 
Q 684 19 347 128 
L 347 722 
Q 666 556 975 473 
Q 1284 391 1588 391 
Q 1994 391 2212 530 
Q 2431 669 2431 922 
Q 2431 1156 2273 1281 
Q 2116 1406 1581 1522 
L 1381 1569 
Q 847 1681 609 1914 
Q 372 2147 372 2553 
Q 372 3047 722 3315 
Q 1072 3584 1716 3584 
Q 2034 3584 2315 3537 
Q 2597 3491 2834 3397 
z
" transform="scale(0.015625)"/>
       <path id="DejaVuSans-69" d="M 603 3500 
L 1178 3500 
L 1178 0 
L 603 0 
L 603 3500 
z
M 603 4863 
L 1178 4863 
L 1178 4134 
L 603 4134 
L 603 4863 
z
" transform="scale(0.015625)"/>
       <path id="DejaVuSans-79" d="M 2059 -325 
Q 1816 -950 1584 -1140 
Q 1353 -1331 966 -1331 
L 506 -1331 
L 506 -850 
L 844 -850 
Q 1081 -850 1212 -737 
Q 1344 -625 1503 -206 
L 1606 56 
L 191 3500 
L 800 3500 
L 1894 763 
L 2988 3500 
L 3597 3500 
L 2059 -325 
z
" transform="scale(0.015625)"/>
      </defs>
      <use xlink:href="#DejaVuSans-44"/>
      <use xlink:href="#DejaVuSans-65" transform="translate(77.001953 0)"/>
      <use xlink:href="#DejaVuSans-6e" transform="translate(138.525391 0)"/>
      <use xlink:href="#DejaVuSans-73" transform="translate(201.904297 0)"/>
      <use xlink:href="#DejaVuSans-69" transform="translate(254.003906 0)"/>
      <use xlink:href="#DejaVuSans-74" transform="translate(281.787109 0)"/>
      <use xlink:href="#DejaVuSans-79" transform="translate(320.996094 0)"/>
     </g>
    </g>
   </g>
   <g id="patch_123">
    <path d="M 42.190938 410.398125 
L 42.190938 22.318125 
" style="fill: none; stroke: #000000; stroke-width: 0.8; stroke-linejoin: miter; stroke-linecap: square"/>
   </g>
   <g id="patch_124">
    <path d="M 42.190938 410.398125 
L 711.790938 410.398125 
" style="fill: none; stroke: #000000; stroke-width: 0.8; stroke-linejoin: miter; stroke-linecap: square"/>
   </g>
   <g id="text_14">
    <!-- Max decile diff = 0.000 -->
    <g transform="translate(55.582938 45.439762) scale(0.1 -0.1)">
     <defs>
      <path id="DejaVuSans-4d" d="M 628 4666 
L 1569 4666 
L 2759 1491 
L 3956 4666 
L 4897 4666 
L 4897 0 
L 4281 0 
L 4281 4097 
L 3078 897 
L 2444 897 
L 1241 4097 
L 1241 0 
L 628 0 
L 628 4666 
z
" transform="scale(0.015625)"/>
      <path id="DejaVuSans-78" d="M 3513 3500 
L 2247 1797 
L 3578 0 
L 2900 0 
L 1881 1375 
L 863 0 
L 184 0 
L 1544 1831 
L 300 3500 
L 978 3500 
L 1906 2253 
L 2834 3500 
L 3513 3500 
z
" transform="scale(0.015625)"/>
      <path id="DejaVuSans-20" transform="scale(0.015625)"/>
      <path id="DejaVuSans-64" d="M 2906 2969 
L 2906 4863 
L 3481 4863 
L 3481 0 
L 2906 0 
L 2906 525 
Q 2725 213 2448 61 
Q 2172 -91 1784 -91 
Q 1150 -91 751 415 
Q 353 922 353 1747 
Q 353 2572 751 3078 
Q 1150 3584 1784 3584 
Q 2172 3584 2448 3432 
Q 2725 3281 2906 2969 
z
M 947 1747 
Q 947 1113 1208 752 
Q 1469 391 1925 391 
Q 2381 391 2643 752 
Q 2906 1113 2906 1747 
Q 2906 2381 2643 2742 
Q 2381 3103 1925 3103 
Q 1469 3103 1208 2742 
Q 947 2381 947 1747 
z
" transform="scale(0.015625)"/>
      <path id="DejaVuSans-63" d="M 3122 3366 
L 3122 2828 
Q 2878 2963 2633 3030 
Q 2388 3097 2138 3097 
Q 1578 3097 1268 2742 
Q 959 2388 959 1747 
Q 959 1106 1268 751 
Q 1578 397 2138 397 
Q 2388 397 2633 464 
Q 2878 531 3122 666 
L 3122 134 
Q 2881 22 2623 -34 
Q 2366 -91 2075 -91 
Q 1284 -91 818 406 
Q 353 903 353 1747 
Q 353 2603 823 3093 
Q 1294 3584 2113 3584 
Q 2378 3584 2631 3529 
Q 2884 3475 3122 3366 
z
" transform="scale(0.015625)"/>
      <path id="DejaVuSans-66" d="M 2375 4863 
L 2375 4384 
L 1825 4384 
Q 1516 4384 1395 4259 
Q 1275 4134 1275 3809 
L 1275 3500 
L 2222 3500 
L 2222 3053 
L 1275 3053 
L 1275 0 
L 697 0 
L 697 3053 
L 147 3053 
L 147 3500 
L 697 3500 
L 697 3744 
Q 697 4328 969 4595 
Q 1241 4863 1831 4863 
L 2375 4863 
z
" transform="scale(0.015625)"/>
      <path id="DejaVuSans-3d" d="M 678 2906 
L 4684 2906 
L 4684 2381 
L 678 2381 
L 678 2906 
z
M 678 1631 
L 4684 1631 
L 4684 1100 
L 678 1100 
L 678 1631 
z
" transform="scale(0.015625)"/>
     </defs>
     <use xlink:href="#DejaVuSans-4d"/>
     <use xlink:href="#DejaVuSans-61" transform="translate(86.279297 0)"/>
     <use xlink:href="#DejaVuSans-78" transform="translate(147.558594 0)"/>
     <use xlink:href="#DejaVuSans-20" transform="translate(206.738281 0)"/>
     <use xlink:href="#DejaVuSans-64" transform="translate(238.525391 0)"/>
     <use xlink:href="#DejaVuSans-65" transform="translate(302.001953 0)"/>
     <use xlink:href="#DejaVuSans-63" transform="translate(363.525391 0)"/>
     <use xlink:href="#DejaVuSans-69" transform="translate(418.505859 0)"/>
     <use xlink:href="#DejaVuSans-6c" transform="translate(446.289062 0)"/>
     <use xlink:href="#DejaVuSans-65" transform="translate(474.072266 0)"/>
     <use xlink:href="#DejaVuSans-20" transform="translate(535.595703 0)"/>
     <use xlink:href="#DejaVuSans-64" transform="translate(567.382812 0)"/>
     <use xlink:href="#DejaVuSans-69" transform="translate(630.859375 0)"/>
     <use xlink:href="#DejaVuSans-66" transform="translate(658.642578 0)"/>
     <use xlink:href="#DejaVuSans-66" transform="translate(693.847656 0)"/>
     <use xlink:href="#DejaVuSans-20" transform="translate(729.052734 0)"/>
     <use xlink:href="#DejaVuSans-3d" transform="translate(760.839844 0)"/>
     <use xlink:href="#DejaVuSans-20" transform="translate(844.628906 0)"/>
     <use xlink:href="#DejaVuSans-30" transform="translate(876.416016 0)"/>
     <use xlink:href="#DejaVuSans-2e" transform="translate(940.039062 0)"/>
     <use xlink:href="#DejaVuSans-30" transform="translate(971.826172 0)"/>
     <use xlink:href="#DejaVuSans-30" transform="translate(1035.449219 0)"/>
     <use xlink:href="#DejaVuSans-30" transform="translate(1099.072266 0)"/>
    </g>
   </g>
   <g id="text_15">
    <!-- Distribution of log1p(amount) in Train vs Test (Stratified by Quantiles) -->
    <g transform="translate(167.930313 16.318125) scale(0.12 -0.12)">
     <defs>
      <path id="DejaVuSans-72" d="M 2631 2963 
Q 2534 3019 2420 3045 
Q 2306 3072 2169 3072 
Q 1681 3072 1420 2755 
Q 1159 2438 1159 1844 
L 1159 0 
L 581 0 
L 581 3500 
L 1159 3500 
L 1159 2956 
Q 1341 3275 1631 3429 
Q 1922 3584 2338 3584 
Q 2397 3584 2469 3576 
Q 2541 3569 2628 3553 
L 2631 2963 
z
" transform="scale(0.015625)"/>
      <path id="DejaVuSans-62" d="M 3116 1747 
Q 3116 2381 2855 2742 
Q 2594 3103 2138 3103 
Q 1681 3103 1420 2742 
Q 1159 2381 1159 1747 
Q 1159 1113 1420 752 
Q 1681 391 2138 391 
Q 2594 391 2855 752 
Q 3116 1113 3116 1747 
z
M 1159 2969 
Q 1341 3281 1617 3432 
Q 1894 3584 2278 3584 
Q 2916 3584 3314 3078 
Q 3713 2572 3713 1747 
Q 3713 922 3314 415 
Q 2916 -91 2278 -91 
Q 1894 -91 1617 61 
Q 1341 213 1159 525 
L 1159 0 
L 581 0 
L 581 4863 
L 1159 4863 
L 1159 2969 
z
" transform="scale(0.015625)"/>
      <path id="DejaVuSans-54" d="M -19 4666 
L 3928 4666 
L 3928 4134 
L 2272 4134 
L 2272 0 
L 1638 0 
L 1638 4134 
L -19 4134 
L -19 4666 
z
" transform="scale(0.015625)"/>
      <path id="DejaVuSans-76" d="M 191 3500 
L 800 3500 
L 1894 563 
L 2988 3500 
L 3597 3500 
L 2284 0 
L 1503 0 
L 191 3500 
z
" transform="scale(0.015625)"/>
      <path id="DejaVuSans-53" d="M 3425 4513 
L 3425 3897 
Q 3066 4069 2747 4153 
Q 2428 4238 2131 4238 
Q 1616 4238 1336 4038 
Q 1056 3838 1056 3469 
Q 1056 3159 1242 3001 
Q 1428 2844 1947 2747 
L 2328 2669 
Q 3034 2534 3370 2195 
Q 3706 1856 3706 1288 
Q 3706 609 3251 259 
Q 2797 -91 1919 -91 
Q 1588 -91 1214 -16 
Q 841 59 441 206 
L 441 856 
Q 825 641 1194 531 
Q 1563 422 1919 422 
Q 2459 422 2753 634 
Q 3047 847 3047 1241 
Q 3047 1584 2836 1778 
Q 2625 1972 2144 2069 
L 1759 2144 
Q 1053 2284 737 2584 
Q 422 2884 422 3419 
Q 422 4038 858 4394 
Q 1294 4750 2059 4750 
Q 2388 4750 2728 4690 
Q 3069 4631 3425 4513 
z
" transform="scale(0.015625)"/>
      <path id="DejaVuSans-51" d="M 2522 4238 
Q 1834 4238 1429 3725 
Q 1025 3213 1025 2328 
Q 1025 1447 1429 934 
Q 1834 422 2522 422 
Q 3209 422 3611 934 
Q 4013 1447 4013 2328 
Q 4013 3213 3611 3725 
Q 3209 4238 2522 4238 
z
M 3406 84 
L 4238 -825 
L 3475 -825 
L 2784 -78 
Q 2681 -84 2626 -87 
Q 2572 -91 2522 -91 
Q 1538 -91 948 567 
Q 359 1225 359 2328 
Q 359 3434 948 4092 
Q 1538 4750 2522 4750 
Q 3503 4750 4090 4092 
Q 4678 3434 4678 2328 
Q 4678 1516 4351 937 
Q 4025 359 3406 84 
z
" transform="scale(0.015625)"/>
     </defs>
     <use xlink:href="#DejaVuSans-44"/>
     <use xlink:href="#DejaVuSans-69" transform="translate(77.001953 0)"/>
     <use xlink:href="#DejaVuSans-73" transform="translate(104.785156 0)"/>
     <use xlink:href="#DejaVuSans-74" transform="translate(156.884766 0)"/>
     <use xlink:href="#DejaVuSans-72" transform="translate(196.09375 0)"/>
     <use xlink:href="#DejaVuSans-69" transform="translate(237.207031 0)"/>
     <use xlink:href="#DejaVuSans-62" transform="translate(264.990234 0)"/>
     <use xlink:href="#DejaVuSans-75" transform="translate(328.466797 0)"/>
     <use xlink:href="#DejaVuSans-74" transform="translate(391.845703 0)"/>
     <use xlink:href="#DejaVuSans-69" transform="translate(431.054688 0)"/>
     <use xlink:href="#DejaVuSans-6f" transform="translate(458.837891 0)"/>
     <use xlink:href="#DejaVuSans-6e" transform="translate(520.019531 0)"/>
     <use xlink:href="#DejaVuSans-20" transform="translate(583.398438 0)"/>
     <use xlink:href="#DejaVuSans-6f" transform="translate(615.185547 0)"/>
     <use xlink:href="#DejaVuSans-66" transform="translate(676.367188 0)"/>
     <use xlink:href="#DejaVuSans-20" transform="translate(711.572266 0)"/>
     <use xlink:href="#DejaVuSans-6c" transform="translate(743.359375 0)"/>
     <use xlink:href="#DejaVuSans-6f" transform="translate(771.142578 0)"/>
     <use xlink:href="#DejaVuSans-67" transform="translate(832.324219 0)"/>
     <use xlink:href="#DejaVuSans-31" transform="translate(895.800781 0)"/>
     <use xlink:href="#DejaVuSans-70" transform="translate(959.423828 0)"/>
     <use xlink:href="#DejaVuSans-28" transform="translate(1022.900391 0)"/>
     <use xlink:href="#DejaVuSans-61" transform="translate(1061.914062 0)"/>
     <use xlink:href="#DejaVuSans-6d" transform="translate(1123.193359 0)"/>
     <use xlink:href="#DejaVuSans-6f" transform="translate(1220.605469 0)"/>
     <use xlink:href="#DejaVuSans-75" transform="translate(1281.787109 0)"/>
     <use xlink:href="#DejaVuSans-6e" transform="translate(1345.166016 0)"/>
     <use xlink:href="#DejaVuSans-74" transform="translate(1408.544922 0)"/>
     <use xlink:href="#DejaVuSans-29" transform="translate(1447.753906 0)"/>
     <use xlink:href="#DejaVuSans-20" transform="translate(1486.767578 0)"/>
     <use xlink:href="#DejaVuSans-69" transform="translate(1518.554688 0)"/>
     <use xlink:href="#DejaVuSans-6e" transform="translate(1546.337891 0)"/>
     <use xlink:href="#DejaVuSans-20" transform="translate(1609.716797 0)"/>
     <use xlink:href="#DejaVuSans-54" transform="translate(1641.503906 0)"/>
     <use xlink:href="#DejaVuSans-72" transform="translate(1687.837891 0)"/>
     <use xlink:href="#DejaVuSans-61" transform="translate(1728.951172 0)"/>
     <use xlink:href="#DejaVuSans-69" transform="translate(1790.230469 0)"/>
     <use xlink:href="#DejaVuSans-6e" transform="translate(1818.013672 0)"/>
     <use xlink:href="#DejaVuSans-20" transform="translate(1881.392578 0)"/>
     <use xlink:href="#DejaVuSans-76" transform="translate(1913.179688 0)"/>
     <use xlink:href="#DejaVuSans-73" transform="translate(1972.359375 0)"/>
     <use xlink:href="#DejaVuSans-20" transform="translate(2024.458984 0)"/>
     <use xlink:href="#DejaVuSans-54" transform="translate(2056.246094 0)"/>
     <use xlink:href="#DejaVuSans-65" transform="translate(2100.330078 0)"/>
     <use xlink:href="#DejaVuSans-73" transform="translate(2161.853516 0)"/>
     <use xlink:href="#DejaVuSans-74" transform="translate(2213.953125 0)"/>
     <use xlink:href="#DejaVuSans-20" transform="translate(2253.162109 0)"/>
     <use xlink:href="#DejaVuSans-28" transform="translate(2284.949219 0)"/>
     <use xlink:href="#DejaVuSans-53" transform="translate(2323.962891 0)"/>
     <use xlink:href="#DejaVuSans-74" transform="translate(2387.439453 0)"/>
     <use xlink:href="#DejaVuSans-72" transform="translate(2426.648438 0)"/>
     <use xlink:href="#DejaVuSans-61" transform="translate(2467.761719 0)"/>
     <use xlink:href="#DejaVuSans-74" transform="translate(2529.041016 0)"/>
     <use xlink:href="#DejaVuSans-69" transform="translate(2568.25 0)"/>
     <use xlink:href="#DejaVuSans-66" transform="translate(2596.033203 0)"/>
     <use xlink:href="#DejaVuSans-69" transform="translate(2631.238281 0)"/>
     <use xlink:href="#DejaVuSans-65" transform="translate(2659.021484 0)"/>
     <use xlink:href="#DejaVuSans-64" transform="translate(2720.544922 0)"/>
     <use xlink:href="#DejaVuSans-20" transform="translate(2784.021484 0)"/>
     <use xlink:href="#DejaVuSans-62" transform="translate(2815.808594 0)"/>
     <use xlink:href="#DejaVuSans-79" transform="translate(2879.285156 0)"/>
     <use xlink:href="#DejaVuSans-20" transform="translate(2938.464844 0)"/>
     <use xlink:href="#DejaVuSans-51" transform="translate(2970.251953 0)"/>
     <use xlink:href="#DejaVuSans-75" transform="translate(3048.962891 0)"/>
     <use xlink:href="#DejaVuSans-61" transform="translate(3112.341797 0)"/>
     <use xlink:href="#DejaVuSans-6e" transform="translate(3173.621094 0)"/>
     <use xlink:href="#DejaVuSans-74" transform="translate(3237 0)"/>
     <use xlink:href="#DejaVuSans-69" transform="translate(3276.208984 0)"/>
     <use xlink:href="#DejaVuSans-6c" transform="translate(3303.992188 0)"/>
     <use xlink:href="#DejaVuSans-65" transform="translate(3331.775391 0)"/>
     <use xlink:href="#DejaVuSans-73" transform="translate(3393.298828 0)"/>
     <use xlink:href="#DejaVuSans-29" transform="translate(3445.398438 0)"/>
    </g>
   </g>
   <g id="legend_1">
    <g id="patch_125">
     <path d="M 597.616094 55.93875 
L 705.490938 55.93875 
Q 707.290938 55.93875 707.290938 54.13875 
L 707.290938 28.618125 
Q 707.290938 26.818125 705.490938 26.818125 
L 597.616094 26.818125 
Q 595.816094 26.818125 595.816094 28.618125 
L 595.816094 54.13875 
Q 595.816094 55.93875 597.616094 55.93875 
z
" style="fill: #ffffff; opacity: 0.8; stroke: #cccccc; stroke-linejoin: miter"/>
    </g>
    <g id="patch_126">
     <path d="M 599.416094 37.256719 
L 617.416094 37.256719 
L 617.416094 30.956719 
L 599.416094 30.956719 
z
" style="fill: #2c7fb8; opacity: 0.6"/>
    </g>
    <g id="text_16">
     <!-- Train (n=402381) -->
     <g transform="translate(624.616094 37.256719) scale(0.09 -0.09)">
      <defs>
       <path id="DejaVuSans-33" d="M 2597 2516 
Q 3050 2419 3304 2112 
Q 3559 1806 3559 1356 
Q 3559 666 3084 287 
Q 2609 -91 1734 -91 
Q 1441 -91 1130 -33 
Q 819 25 488 141 
L 488 750 
Q 750 597 1062 519 
Q 1375 441 1716 441 
Q 2309 441 2620 675 
Q 2931 909 2931 1356 
Q 2931 1769 2642 2001 
Q 2353 2234 1838 2234 
L 1294 2234 
L 1294 2753 
L 1863 2753 
Q 2328 2753 2575 2939 
Q 2822 3125 2822 3475 
Q 2822 3834 2567 4026 
Q 2313 4219 1838 4219 
Q 1578 4219 1281 4162 
Q 984 4106 628 3988 
L 628 4550 
Q 988 4650 1302 4700 
Q 1616 4750 1894 4750 
Q 2613 4750 3031 4423 
Q 3450 4097 3450 3541 
Q 3450 3153 3228 2886 
Q 3006 2619 2597 2516 
z
" transform="scale(0.015625)"/>
      </defs>
      <use xlink:href="#DejaVuSans-54"/>
      <use xlink:href="#DejaVuSans-72" transform="translate(46.333984 0)"/>
      <use xlink:href="#DejaVuSans-61" transform="translate(87.447266 0)"/>
      <use xlink:href="#DejaVuSans-69" transform="translate(148.726562 0)"/>
      <use xlink:href="#DejaVuSans-6e" transform="translate(176.509766 0)"/>
      <use xlink:href="#DejaVuSans-20" transform="translate(239.888672 0)"/>
      <use xlink:href="#DejaVuSans-28" transform="translate(271.675781 0)"/>
      <use xlink:href="#DejaVuSans-6e" transform="translate(310.689453 0)"/>
      <use xlink:href="#DejaVuSans-3d" transform="translate(374.068359 0)"/>
      <use xlink:href="#DejaVuSans-34" transform="translate(457.857422 0)"/>
      <use xlink:href="#DejaVuSans-30" transform="translate(521.480469 0)"/>
      <use xlink:href="#DejaVuSans-32" transform="translate(585.103516 0)"/>
      <use xlink:href="#DejaVuSans-33" transform="translate(648.726562 0)"/>
      <use xlink:href="#DejaVuSans-38" transform="translate(712.349609 0)"/>
      <use xlink:href="#DejaVuSans-31" transform="translate(775.972656 0)"/>
      <use xlink:href="#DejaVuSans-29" transform="translate(839.595703 0)"/>
     </g>
    </g>
    <g id="patch_127">
     <path d="M 599.416094 50.467031 
L 617.416094 50.467031 
L 617.416094 44.167031 
L 599.416094 44.167031 
z
" style="fill: #d95f0e; opacity: 0.6"/>
    </g>
    <g id="text_17">
     <!-- Test  (n=172449) -->
     <g transform="translate(624.616094 50.467031) scale(0.09 -0.09)">
      <defs>
       <path id="DejaVuSans-37" d="M 525 4666 
L 3525 4666 
L 3525 4397 
L 1831 0 
L 1172 0 
L 2766 4134 
L 525 4134 
L 525 4666 
z
" transform="scale(0.015625)"/>
      </defs>
      <use xlink:href="#DejaVuSans-54"/>
      <use xlink:href="#DejaVuSans-65" transform="translate(44.083984 0)"/>
      <use xlink:href="#DejaVuSans-73" transform="translate(105.607422 0)"/>
      <use xlink:href="#DejaVuSans-74" transform="translate(157.707031 0)"/>
      <use xlink:href="#DejaVuSans-20" transform="translate(196.916016 0)"/>
      <use xlink:href="#DejaVuSans-20" transform="translate(228.703125 0)"/>
      <use xlink:href="#DejaVuSans-28" transform="translate(260.490234 0)"/>
      <use xlink:href="#DejaVuSans-6e" transform="translate(299.503906 0)"/>
      <use xlink:href="#DejaVuSans-3d" transform="translate(362.882812 0)"/>
      <use xlink:href="#DejaVuSans-31" transform="translate(446.671875 0)"/>
      <use xlink:href="#DejaVuSans-37" transform="translate(510.294922 0)"/>
      <use xlink:href="#DejaVuSans-32" transform="translate(573.917969 0)"/>
      <use xlink:href="#DejaVuSans-34" transform="translate(637.541016 0)"/>
      <use xlink:href="#DejaVuSans-34" transform="translate(701.164062 0)"/>
      <use xlink:href="#DejaVuSans-39" transform="translate(764.787109 0)"/>
      <use xlink:href="#DejaVuSans-29" transform="translate(828.410156 0)"/>
     </g>
    </g>
   </g>
  </g>
 </g>
 <defs>
  <clipPath id="pb9c756a8cb">
   <rect x="42.190938" y="22.318125" width="669.6" height="388.08"/>
  </clipPath>
 </defs>
</svg>
